<svg xmlns="http://www.w3.org/2000/svg" version="1.1" xmlns:xlink="http://www.w3.org/1999/xlink" xmlns:svgjs="http://svgjs.dev/svgjs" viewBox="0 0 2400 800" opacity="0.1"><defs><linearGradient x1="50%" y1="0%" x2="50%" y2="100%" id="sssurf-grad"><stop stop-color="hsl(208, 77%, 50%)" stop-opacity="1" offset="0%"></stop><stop stop-color="hsl(208, 74%, 93%)" stop-opacity="1" offset="100%"></stop></linearGradient></defs><g fill="url(#sssurf-grad)" transform="matrix(1,0,0,1,10.8282470703125,221.60329055786133)"><path d="M-10,10C33.75,10.833333333333334,114.58333333333334,20.875,200,14C285.41666666666663,7.125,316.66666666666663,-26.125,400,-23C483.33333333333337,-19.875,516.6666666666666,26.708333333333332,600,29C683.3333333333334,31.291666666666668,716.6666666666666,-15.333333333333332,800,-12C883.3333333333334,-8.666666666666668,916.6666666666666,44.583333333333336,1000,45C1083.3333333333333,45.416666666666664,1116.6666666666667,-8.541666666666666,1200,-10C1283.3333333333333,-11.458333333333334,1316.6666666666667,38.833333333333336,1400,38C1483.3333333333333,37.166666666666664,1516.6666666666667,-17.541666666666668,1600,-14C1683.3333333333333,-10.458333333333332,1716.6666666666667,51.458333333333336,1800,55C1883.3333333333333,58.541666666666664,1916.6666666666667,6.75,2000,3C2083.3333333333335,-0.75,2118.75,35.541666666666664,2200,37C2281.25,38.458333333333336,2296.25,-65.625,2390,10C2483.75,85.625,3252.0833333333335,214.58333333333331,2650,400C2047.9166666666665,585.4166666666667,156.25,795.8333333333334,-500,900" transform="matrix(1,0,0,1,0,35)" opacity="0.05"></path><path d="M-10,10C33.75,10.833333333333334,114.58333333333334,20.875,200,14C285.41666666666663,7.125,316.66666666666663,-26.125,400,-23C483.33333333333337,-19.875,516.6666666666666,26.708333333333332,600,29C683.3333333333334,31.291666666666668,716.6666666666666,-15.333333333333332,800,-12C883.3333333333334,-8.666666666666668,916.6666666666666,44.583333333333336,1000,45C1083.3333333333333,45.416666666666664,1116.6666666666667,-8.541666666666666,1200,-10C1283.3333333333333,-11.458333333333334,1316.6666666666667,38.833333333333336,1400,38C1483.3333333333333,37.166666666666664,1516.6666666666667,-17.541666666666668,1600,-14C1683.3333333333333,-10.458333333333332,1716.6666666666667,51.458333333333336,1800,55C1883.3333333333333,58.541666666666664,1916.6666666666667,6.75,2000,3C2083.3333333333335,-0.75,2118.75,35.541666666666664,2200,37C2281.25,38.458333333333336,2296.25,-65.625,2390,10C2483.75,85.625,3252.0833333333335,214.58333333333331,2650,400C2047.9166666666665,585.4166666666667,156.25,795.8333333333334,-500,900" transform="matrix(1,0,0,1,0,70)" opacity="0.21"></path><path d="M-10,10C33.75,10.833333333333334,114.58333333333334,20.875,200,14C285.41666666666663,7.125,316.66666666666663,-26.125,400,-23C483.33333333333337,-19.875,516.6666666666666,26.708333333333332,600,29C683.3333333333334,31.291666666666668,716.6666666666666,-15.333333333333332,800,-12C883.3333333333334,-8.666666666666668,916.6666666666666,44.583333333333336,1000,45C1083.3333333333333,45.416666666666664,1116.6666666666667,-8.541666666666666,1200,-10C1283.3333333333333,-11.458333333333334,1316.6666666666667,38.833333333333336,1400,38C1483.3333333333333,37.166666666666664,1516.6666666666667,-17.541666666666668,1600,-14C1683.3333333333333,-10.458333333333332,1716.6666666666667,51.458333333333336,1800,55C1883.3333333333333,58.541666666666664,1916.6666666666667,6.75,2000,3C2083.3333333333335,-0.75,2118.75,35.541666666666664,2200,37C2281.25,38.458333333333336,2296.25,-65.625,2390,10C2483.75,85.625,3252.0833333333335,214.58333333333331,2650,400C2047.9166666666665,585.4166666666667,156.25,795.8333333333334,-500,900" transform="matrix(1,0,0,1,0,105)" opacity="0.37"></path><path d="M-10,10C33.75,10.833333333333334,114.58333333333334,20.875,200,14C285.41666666666663,7.125,316.66666666666663,-26.125,400,-23C483.33333333333337,-19.875,516.6666666666666,26.708333333333332,600,29C683.3333333333334,31.291666666666668,716.6666666666666,-15.333333333333332,800,-12C883.3333333333334,-8.666666666666668,916.6666666666666,44.583333333333336,1000,45C1083.3333333333333,45.416666666666664,1116.6666666666667,-8.541666666666666,1200,-10C1283.3333333333333,-11.458333333333334,1316.6666666666667,38.833333333333336,1400,38C1483.3333333333333,37.166666666666664,1516.6666666666667,-17.541666666666668,1600,-14C1683.3333333333333,-10.458333333333332,1716.6666666666667,51.458333333333336,1800,55C1883.3333333333333,58.541666666666664,1916.6666666666667,6.75,2000,3C2083.3333333333335,-0.75,2118.75,35.541666666666664,2200,37C2281.25,38.458333333333336,2296.25,-65.625,2390,10C2483.75,85.625,3252.0833333333335,214.58333333333331,2650,400C2047.9166666666665,585.4166666666667,156.25,795.8333333333334,-500,900" transform="matrix(1,0,0,1,0,140)" opacity="0.53"></path><path d="M-10,10C33.75,10.833333333333334,114.58333333333334,20.875,200,14C285.41666666666663,7.125,316.66666666666663,-26.125,400,-23C483.33333333333337,-19.875,516.6666666666666,26.708333333333332,600,29C683.3333333333334,31.291666666666668,716.6666666666666,-15.333333333333332,800,-12C883.3333333333334,-8.666666666666668,916.6666666666666,44.583333333333336,1000,45C1083.3333333333333,45.416666666666664,1116.6666666666667,-8.541666666666666,1200,-10C1283.3333333333333,-11.458333333333334,1316.6666666666667,38.833333333333336,1400,38C1483.3333333333333,37.166666666666664,1516.6666666666667,-17.541666666666668,1600,-14C1683.3333333333333,-10.458333333333332,1716.6666666666667,51.458333333333336,1800,55C1883.3333333333333,58.541666666666664,1916.6666666666667,6.75,2000,3C2083.3333333333335,-0.75,2118.75,35.541666666666664,2200,37C2281.25,38.458333333333336,2296.25,-65.625,2390,10C2483.75,85.625,3252.0833333333335,214.58333333333331,2650,400C2047.9166666666665,585.4166666666667,156.25,795.8333333333334,-500,900" transform="matrix(1,0,0,1,0,175)" opacity="0.68"></path><path d="M-10,10C33.75,10.833333333333334,114.58333333333334,20.875,200,14C285.41666666666663,7.125,316.66666666666663,-26.125,400,-23C483.33333333333337,-19.875,516.6666666666666,26.708333333333332,600,29C683.3333333333334,31.291666666666668,716.6666666666666,-15.333333333333332,800,-12C883.3333333333334,-8.666666666666668,916.6666666666666,44.583333333333336,1000,45C1083.3333333333333,45.416666666666664,1116.6666666666667,-8.541666666666666,1200,-10C1283.3333333333333,-11.458333333333334,1316.6666666666667,38.833333333333336,1400,38C1483.3333333333333,37.166666666666664,1516.6666666666667,-17.541666666666668,1600,-14C1683.3333333333333,-10.458333333333332,1716.6666666666667,51.458333333333336,1800,55C1883.3333333333333,58.541666666666664,1916.6666666666667,6.75,2000,3C2083.3333333333335,-0.75,2118.75,35.541666666666664,2200,37C2281.25,38.458333333333336,2296.25,-65.625,2390,10C2483.75,85.625,3252.0833333333335,214.58333333333331,2650,400C2047.9166666666665,585.4166666666667,156.25,795.8333333333334,-500,900" transform="matrix(1,0,0,1,0,210)" opacity="0.84"></path><path d="M-10,10C33.75,10.833333333333334,114.58333333333334,20.875,200,14C285.41666666666663,7.125,316.66666666666663,-26.125,400,-23C483.33333333333337,-19.875,516.6666666666666,26.708333333333332,600,29C683.3333333333334,31.291666666666668,716.6666666666666,-15.333333333333332,800,-12C883.3333333333334,-8.666666666666668,916.6666666666666,44.583333333333336,1000,45C1083.3333333333333,45.416666666666664,1116.6666666666667,-8.541666666666666,1200,-10C1283.3333333333333,-11.458333333333334,1316.6666666666667,38.833333333333336,1400,38C1483.3333333333333,37.166666666666664,1516.6666666666667,-17.541666666666668,1600,-14C1683.3333333333333,-10.458333333333332,1716.6666666666667,51.458333333333336,1800,55C1883.3333333333333,58.541666666666664,1916.6666666666667,6.75,2000,3C2083.3333333333335,-0.75,2118.75,35.541666666666664,2200,37C2281.25,38.458333333333336,2296.25,-65.625,2390,10C2483.75,85.625,3252.0833333333335,214.58333333333331,2650,400C2047.9166666666665,585.4166666666667,156.25,795.8333333333334,-500,900" transform="matrix(1,0,0,1,0,245)" opacity="1"></path></g></svg>