<?xml version="1.0" ?><svg enable-background="new 0 0 208 220.0039" id="uber" version="1.1" viewBox="0 0 208 220.0039" xml:space="preserve" xmlns="http://www.w3.org/2000/svg" xmlns:xlink="http://www.w3.org/1999/xlink"><path d="M120,0.0039v13.3809c0,12.2812,9.6992,22.2715,21.6172,22.2715H172v114.2754  c0,19.3008-13.9336,34.4199-31.7188,34.4199H67.4844C49.8281,184.3516,36,169.3379,36,150.1719V35.6562h50.5195V19.293  C86.5195,8.6543,78.1094,0,67.7734,0H0v149.9277c-0.0039,18.6172,7.043,36.1777,19.8359,49.4434  c12.8281,13.3047,29.832,20.6328,47.8789,20.6328h72.2578c37.5117,0,68.0273-31.5801,68.0273-70.3965V0.0039H120z" fill="#1C71DA"/><path d="M200,149.6074c0,34.4062-26.9297,62.3965-60.0273,62.3965H67.7148c-15.8516,0-30.8125-6.459-42.1211-18.1855  C14.2461,182.0508,8,166.4629,8,149.9277V8h59.7734c5.9258,0,10.7461,5.0664,10.7461,11.293v8.3633H28v122.5156  c0,23.6523,17.3437,42.1797,39.4844,42.1797h72.7969c22.2734,0,39.7188-18.6328,39.7188-42.4199V27.6562h-38.3828  C134.1094,27.6562,128,21.254,128,13.3848V8.0039h72V149.6074z" fill="#5CB0FF"/><path d="M58.1759,110.5186c-1.0234,0-2.0469-0.3906-2.8281-1.1714c-1.5625-1.5625-1.5625-4.0952,0-5.6572  l14.1426-14.1421c1.5605-1.5615,4.0938-1.5615,5.6562,0c1.5625,1.5625,1.5625,4.0952,0,5.6572l-14.1426,14.1421  C60.2238,110.1279,59.1994,110.5186,58.1759,110.5186z" fill="#FF5D5D"/><path d="M72.3185,110.519c-1.0234,0-2.0479-0.3906-2.8281-1.1714L55.3478,95.2051  c-1.5625-1.5625-1.5625-4.0947,0-5.6572c1.5605-1.5615,4.0957-1.5615,5.6562,0l14.1426,14.1426  c1.5625,1.5625,1.5625,4.0947,0,5.6572C74.3664,110.1284,73.3419,110.519,72.3185,110.519z" fill="#FF5D5D"/><path d="M136.1759,94.5186c-7.7197,0-14-6.2803-14-14s6.2803-14,14-14s14,6.2803,14,14  S143.8957,94.5186,136.1759,94.5186z M136.1759,74.5186c-3.3086,0-6,2.6914-6,6s2.6914,6,6,6s6-2.6914,6-6  S139.4845,74.5186,136.1759,74.5186z" fill="#00D40B"/><path d="M113.4894,165.146c-1.0234,0-2.0479-0.3906-2.8281-1.1714l-11.3135-11.3135  c-1.5625-1.5625-1.5625-4.0947,0-5.6567l11.3135-11.314c0.75-0.7505,1.7676-1.1719,2.8281-1.1719s2.0781,0.4214,2.8281,1.1719  l11.3135,11.314c1.5625,1.562,1.5625,4.0942,0,5.6567l-11.3135,11.3135C115.5373,164.7554,114.5128,165.146,113.4894,165.146z   M107.8332,149.8325l5.6562,5.6567l5.6562-5.6567l-5.6562-5.6572L107.8332,149.8325z" fill="#FFC504"/></svg>